<svg width="16" height="16" viewBox="0 0 16 16" fill="none" xmlns="http://www.w3.org/2000/svg">
<path d="M11.3333 1.99996H13.9999C14.1767 1.99996 14.3463 2.0702 14.4713 2.19522C14.5963 2.32025 14.6666 2.48981 14.6666 2.66663V13.3333C14.6666 13.5101 14.5963 13.6797 14.4713 13.8047C14.3463 13.9297 14.1767 14 13.9999 14H1.99992C1.82311 14 1.65354 13.9297 1.52851 13.8047C1.40349 13.6797 1.33325 13.5101 1.33325 13.3333V2.66663C1.33325 2.48981 1.40349 2.32025 1.52851 2.19522C1.65354 2.0702 1.82311 1.99996 1.99992 1.99996H4.66659V0.666626H5.99992V1.99996H9.99992V0.666626H11.3333V1.99996ZM9.99992 3.33329H5.99992V4.66663H4.66659V3.33329H2.66659V5.99996H13.3333V3.33329H11.3333V4.66663H9.99992V3.33329ZM13.3333 7.33329H2.66659V12.6666H13.3333V7.33329Z" fill="#4B5563"/>
</svg>
